<?xml version="1.0" encoding="utf-8"?>
<!-- Generator: Adobe Illustrator 22.1.0, SVG Export Plug-In . SVG Version: 6.00 Build 0)  -->
<svg version="1.1" id="Capa_1" xmlns="http://www.w3.org/2000/svg" xmlns:xlink="http://www.w3.org/1999/xlink" x="0px" y="0px"
	 viewBox="0 0 60 60" style="enable-background:new 0 0 60 60;" xml:space="preserve">
<style type="text/css">
	.st0{fill:#2E70EA;}
</style>
<path class="st0" d="M30,0C13.4,0,0,13.4,0,30s13.4,30,30,30c16.6,0,30-13.4,30-30S46.6,0,30,0z M8.1,41.3c0-9.4,8.2-9.4,10.1-11.8
	l0.2-1.1c-2.6-1.3-4.4-4.4-4.4-8.1c0-4.8,3.1-8.7,7-8.7c3.1,0,5.6,2.4,6.6,5.8c-3.9,1.2-6.8,5.4-6.8,10.4c0,3.4,1.4,6.6,3.6,8.6
	c-0.4,0.2-0.8,0.4-1.1,0.5c-1.8,0.8-4.3,2-6.1,4.4H8.1z M30.1,48.8L30.1,48.8l-0.2,0H17.1c0-9.4,8.2-9.4,10.1-11.8l0.2-1.1
	c-2.6-1.3-4.4-4.4-4.4-8.1c0-4.8,3.1-8.7,7-8.7c3.9,0,7,3.9,7,8.7c0,3.6-1.8,6.8-4.3,8.1l0.2,1.3c2,2.3,10,2.5,10,11.7H30.1z
	 M42.7,41.3L42.7,41.3c-1.8-2.3-4.3-3.5-6.1-4.4c-0.4-0.2-0.7-0.4-1.1-0.5c2.2-2,3.6-5.2,3.6-8.6c0-5-2.9-9.2-6.8-10.4
	c1-3.4,3.6-5.8,6.6-5.8c3.9,0,7,3.9,7,8.7c0,3.6-1.8,6.8-4.3,8.1l0.2,1.3c2,2.3,10,2.5,10,11.7H42.7z"/>
</svg>
