<?xml version="1.0" encoding="utf-8"?>
<!-- Generator: Adobe Illustrator 22.1.0, SVG Export Plug-In . SVG Version: 6.00 Build 0)  -->
<svg version="1.1" id="Calque_1" xmlns="http://www.w3.org/2000/svg" xmlns:xlink="http://www.w3.org/1999/xlink" x="0px" y="0px"
	 viewBox="0 0 23.8 23.8" style="enable-background:new 0 0 23.8 23.8;" xml:space="preserve">
<style type="text/css">
	.st0{fill:#201246;}
	.st1{fill:#FFFFFF;}
</style>
<g>
	<g>
		<circle class="st0" cx="11.9" cy="11.9" r="11.9"/>
	</g>
</g>
<path class="st1" d="M13.2,11.9l3.6-3.6c0.3-0.3,0.3-0.9,0-1.3c-0.3-0.3-0.9-0.3-1.3,0l-3.6,3.6L8.3,7.1C8,6.7,7.4,6.7,7.1,7.1
	C6.7,7.4,6.7,8,7.1,8.3l3.6,3.6l-3.6,3.6c-0.3,0.3-0.3,0.9,0,1.3C7.2,16.9,7.5,17,7.7,17s0.5-0.1,0.6-0.3l3.6-3.6l3.6,3.6
	c0.2,0.2,0.4,0.3,0.6,0.3s0.5-0.1,0.6-0.3c0.3-0.3,0.3-0.9,0-1.3L13.2,11.9z"/>
</svg>
